<?xml version="1.0" encoding="UTF-8"?>
<svg width="10px" height="10px" viewBox="0 0 10 10" version="1.1" xmlns="http://www.w3.org/2000/svg" xmlns:xlink="http://www.w3.org/1999/xlink">
    <title>Combined Shape Copy 12</title>
    <g id="1.0-Our-Work" stroke="none" stroke-width="1" fill="none" fill-rule="evenodd">
        <g id="Case-Study:-JP" transform="translate(-980.000000, -460.000000)" fill="#000000">
            <g id="agnsw-japan-supernatural---marketing-material-approved_49741535727_o">
                <g id="Group-22">
                    <g id="Group-21-Copy-10" transform="translate(960.000000, 320.000000)">
                        <g id="Group-20-Copy-3" transform="translate(0.000000, 120.000000)">
                            <g id="Group-19">
                                <path d="M24.998993,28.749987 C25.6896276,28.749987 26.2500521,29.3093678 26.2500521,30 L26.2500521,30 L23.7493229,30 C23.7493229,29.3093678 24.3087057,28.749987 24.998993,28.749987 Z M20.0001389,28.749987 C20.6904263,28.749987 21.2501563,29.3093678 21.2501563,30 L21.2501563,30 L20.0001389,30 Z M30,28.7498481 L30,29.9998611 L28.7499826,29.9998611 C28.7499826,29.3095761 29.3093654,28.7498481 30,28.7498481 L30,28.7498481 Z M22.4995486,26.2502387 C23.1894887,26.2502387 23.749566,26.8096195 23.749566,27.5002517 C23.749566,28.1905367 23.1894887,28.7499175 22.4995486,28.7499175 C21.808914,28.7499175 21.249184,28.1905367 21.249184,27.5002517 C21.249184,26.8096195 21.808914,26.2502387 22.4995486,26.2502387 Z M27.5001042,26.2502387 C28.1903915,26.2502387 28.7501215,26.8096195 28.7501215,27.5002517 C28.7501215,28.1905367 28.1903915,28.7499175 27.5001042,28.7499175 C26.8098168,28.7499175 26.2497396,28.1905367 26.2497396,27.5002517 C26.2497396,26.8096195 26.8098168,26.2502387 27.5001042,26.2502387 Z M30,23.7496571 L30,26.2503776 C29.3093654,26.2503776 28.7499826,25.6906496 28.7499826,25.0003646 C28.7499826,24.3093852 29.3093654,23.7496571 30,23.7496571 L30,23.7496571 Z M24.998993,23.749796 C25.6896276,23.749796 26.2500521,24.3091768 26.2500521,25.0005035 C26.2500521,25.6907884 25.6896276,26.2501693 24.998993,26.2501693 C24.3087057,26.2501693 23.7493229,25.6907884 23.7493229,25.0005035 C23.7493229,24.3091768 24.3087057,23.749796 24.998993,23.749796 Z M20,23.7496571 C20.6906346,23.7496571 21.2500174,24.3093852 21.2500174,25.0003646 C21.2500174,25.6906496 20.6906346,26.2503776 20,26.2503776 L20,26.2503776 Z M22.4995486,21.2501172 C23.1894887,21.2501172 23.749566,21.809498 23.749566,22.499783 C23.749566,23.1904152 23.1894887,23.749796 22.4995486,23.749796 C21.808914,23.749796 21.249184,23.1904152 21.249184,22.499783 C21.249184,21.809498 21.808914,21.2501172 22.4995486,21.2501172 Z M27.5001042,21.2501172 C28.1903915,21.2501172 28.7501215,21.809498 28.7501215,22.499783 C28.7501215,23.1904152 28.1903915,23.749796 27.5001042,23.749796 C26.8098168,23.749796 26.2497396,23.1904152 26.2497396,22.499783 C26.2497396,21.809498 26.8098168,21.2501172 27.5001042,21.2501172 Z M30,20.0001736 L30,21.2508811 C29.3093654,21.2508811 28.7499826,20.691153 28.7499826,20.0001736 L28.7499826,20.0001736 L30,20.0001736 Z M26.2500521,20 C26.2500521,20.6913266 25.6896276,21.2507075 24.998993,21.2507075 C24.3087057,21.2507075 23.7493229,20.6913266 23.7493229,20 L23.7493229,20 Z M21.2500174,20.0001736 C21.2500174,20.691153 20.6906346,21.2508811 20,21.2508811 L20,21.2508811 L20,20.0001736 Z" id="Combined-Shape-Copy-12"></path>
                            </g>
                        </g>
                    </g>
                </g>
            </g>
        </g>
    </g>
</svg>