<svg xmlns="http://www.w3.org/2000/svg" xmlns:xlink="http://www.w3.org/1999/xlink" width="20" height="20" viewBox="0 0 20 20">
  <defs>
    <polygon id="facebook-a" points="0 0 19.355 0 19.355 19.355 0 19.355"/>
  </defs>
  <g fill="none" fill-rule="evenodd">
    <mask id="facebook-b" fill="#fff">
      <use xlink:href="#facebook-a"/>
    </mask>
    <path fill="#FFF" d="M16.9353242,0 L2.41929194,0 C1.0851629,0 -1.4516129e-05,1.08517742 -1.4516129e-05,2.41930645 L-1.4516129e-05,16.9352903 C-1.4516129e-05,18.2696613 1.0851629,19.3548387 2.41929194,19.3548387 L9.67740484,19.3548387 L9.67740484,12.7016129 L7.25814677,12.7016129 L7.25814677,9.67741935 L9.67740484,9.67741935 L9.67740484,7.2581129 C9.67740484,5.25358065 11.3019048,3.62903226 13.3064855,3.62903226 L15.7257919,3.62903226 L15.7257919,6.65322581 L14.5160177,6.65322581 C13.8483726,6.65322581 13.3064855,6.59032258 13.3064855,7.2581129 L13.3064855,9.67741935 L16.330679,9.67741935 L15.1209048,12.7016129 L13.3064855,12.7016129 L13.3064855,19.3548387 L16.9353242,19.3548387 C18.2696468,19.3548387 19.3548242,18.2696613 19.3548242,16.9352903 L19.3548242,2.41930645 C19.3548242,1.08517742 18.2696468,0 16.9353242,0" mask="url(#facebook-b)"/>
  </g>
</svg>
