<svg xmlns="http://www.w3.org/2000/svg" xmlns:xlink="http://www.w3.org/1999/xlink" width="20" height="20" viewBox="0 0 20 20">
  <defs>
    <polygon id="linkedin-a" points="0 0 13.306 0 13.306 13.306 0 13.306"/>
    <polygon id="linkedin-c" points="0 0 4.234 0 4.234 4.234 0 4.234"/>
  </defs>
  <g fill="none" fill-rule="evenodd">
    <polygon fill="#FFF" points="0 19.355 4.328 19.355 4.328 6.048 0 6.048"/>
    <g transform="translate(6.048 6.048)">
      <mask id="linkedin-b" fill="#fff">
        <use xlink:href="#linkedin-a"/>
      </mask>
      <path fill="#FFF" d="M10.0692726,0.155956452 C10.0233048,0.141537097 9.97970806,0.125859677 9.93136935,0.112408065 C9.87320806,0.0991016129 9.81528871,0.0882145161 9.75601452,0.0785854839 C9.52622419,0.0326177419 9.27441774,-4.35483871e-05 8.97930484,-4.35483871e-05 C6.4560629,-4.35483871e-05 4.8555629,1.83508548 4.32824032,2.54390806 L4.32824032,-4.35483871e-05 L-3.38709677e-05,-4.35483871e-05 L-3.38709677e-05,13.3064565 L4.32824032,13.3064565 L4.32824032,6.04829516 C4.32824032,6.04829516 7.59915968,1.49269839 8.97930484,4.83852097 L8.97930484,13.3064565 L13.3064177,13.3064565 L13.3064177,4.32687581 C13.3064177,2.31644032 11.9284984,0.64098871 10.0692726,0.155956452" mask="url(#linkedin-b)"/>
    </g>
    <mask id="linkedin-d" fill="#fff">
      <use xlink:href="#linkedin-c"/>
    </mask>
    <path fill="#FFF" d="M4.23394839,2.11695968 C4.23394839,3.28608871 3.28609355,4.23394355 2.11696452,4.23394355 C0.947835484,4.23394355 -1.93548387e-05,3.28608871 -1.93548387e-05,2.11695968 C-1.93548387e-05,0.947830645 0.947835484,2.41935484e-05 2.11696452,2.41935484e-05 C3.28609355,2.41935484e-05 4.23394839,0.947830645 4.23394839,2.11695968" mask="url(#linkedin-d)"/>
  </g>
</svg>
