<svg xmlns="http://www.w3.org/2000/svg" xmlns:xlink="http://www.w3.org/1999/xlink" width="20" height="20" viewBox="0 0 20 20">
  <defs>
    <polygon id="instagram-a" points="0 0 19.355 0 19.355 19.355 0 19.355"/>
  </defs>
  <g fill="none" fill-rule="evenodd">
    <mask id="instagram-b" fill="#fff">
      <use xlink:href="#instagram-a"/>
    </mask>
    <path fill="#FFF" d="M17.5401968,13.3065 C17.5401968,15.6410323 15.6410516,17.5401774 13.306471,17.5401774 L6.04835806,17.5401774 C3.71377742,17.5401774 1.81439032,15.6410323 1.81439032,13.3065 L1.81439032,6.04833871 C1.81439032,3.71380645 3.71377742,1.81441935 6.04835806,1.81441935 L13.306471,1.81441935 C15.6410516,1.81441935 17.5401968,3.71380645 17.5401968,6.04833871 L17.5401968,13.3065 Z M13.306471,-2.75048801e-15 L6.04835806,-2.75048801e-15 C2.70853548,-2.75048801e-15 1.93548387e-05,2.70856452 1.93548387e-05,6.04833871 L1.93548387e-05,13.3065 C1.93548387e-05,16.6462258 2.70853548,19.3548387 6.04835806,19.3548387 L13.306471,19.3548387 C16.6462452,19.3548387 19.3548581,16.6462258 19.3548581,13.3065 L19.3548581,6.04833871 C19.3548581,2.70856452 16.6462452,-2.75048801e-15 13.306471,-2.75048801e-15 L13.306471,-2.75048801e-15 Z" mask="url(#instagram-b)"/>
    <path fill="#FFF" d="M9.67743871 12.7016129C8.01045484 12.7016129 6.65324516 11.3443548 6.65324516 9.67741935 6.65324516 8.00912903 8.01045484 6.65322581 9.67743871 6.65322581 11.3443258 6.65322581 12.7015839 8.00912903 12.7015839 9.67741935 12.7015839 11.3443548 11.3443258 12.7016129 9.67743871 12.7016129M9.67743871 4.8386129C7.0052129 4.8386129 4.83858387 7.00519355 4.83858387 9.67741935 4.83858387 12.3496452 7.0052129 14.5160323 9.67743871 14.5160323 12.3496161 14.5160323 14.5160032 12.3496452 14.5160032 9.67741935 14.5160032 7.00519355 12.3496161 4.8386129 9.67743871 4.8386129M15.5236306 4.47575806C15.5236306 4.83179032 15.2349532 5.12041935 14.878921 5.12041935 14.5228403 5.12041935 14.2341629 4.83179032 14.2341629 4.47575806 14.2341629 4.11972581 14.5228403 3.831 14.878921 3.831 15.2349532 3.831 15.5236306 4.11972581 15.5236306 4.47575806"/>
  </g>
</svg>
