<svg xmlns="http://www.w3.org/2000/svg" xmlns:xlink="http://www.w3.org/1999/xlink" width="24" height="20" viewBox="0 0 24 20">
  <defs>
    <polygon id="twitter-a" points="0 0 23.821 0 23.821 19.355 0 19.355"/>
  </defs>
  <g fill="none" fill-rule="evenodd">
    <mask id="twitter-b" fill="#fff">
      <use xlink:href="#twitter-a"/>
    </mask>
    <path fill="#FFF" d="M23.8214032,2.29134677 C22.9353387,2.67999194 21.9915,2.93765323 21.0073548,3.0626371 C22.0198548,2.45808871 22.7924516,1.50825 23.1556935,0.363314516 C22.2118065,0.926201613 21.1697419,1.32375 20.0590645,1.54550806 C19.1626452,0.591120968 17.8851774,2.41935484e-05 16.4917258,2.41935484e-05 C13.7880968,2.41935484e-05 11.6114516,2.19457258 11.6114516,4.88504032 C11.6114516,5.2721371 11.6442097,5.64423387 11.724629,5.99866935 C7.66451613,5.80057258 4.07196774,3.85478226 1.65866129,0.890346774 C1.23720968,1.62137903 0.99,2.45808871 0.99,3.35881452 C0.99,5.0501371 1.86101613,6.54955645 3.15933871,7.41733065 C2.37469355,7.40262097 1.605,7.17476613 0.952790323,6.81602419 L0.952790323,6.86968548 C0.952790323,9.24273387 2.64570968,11.2139758 4.86541935,11.6680887 C4.46787097,11.7767177 4.03466129,11.8289274 3.58509677,11.8289274 C3.27251613,11.8289274 2.95674194,11.8109274 2.66046774,11.7455081 C3.29341935,13.6794919 5.08877419,15.1013952 7.22375806,15.1475081 C5.56224194,16.4472339 3.4526129,17.2302823 1.1688871,17.2302823 C0.768290323,17.2302823 0.384145161,17.2125242 0,17.1633145 C2.16314516,18.5584113 4.72708065,19.3548629 7.49182258,19.3548629 C16.4783226,19.3548629 21.3914516,11.9107016 21.3914516,5.45818548 C21.3914516,5.24237903 21.3839516,5.03383065 21.3735484,4.82687903 C22.3428871,4.13895968 23.1573387,3.28004032 23.8214032,2.29134677" mask="url(#twitter-b)"/>
  </g>
</svg>
