<?xml version="1.0" encoding="UTF-8"?>
<svg xmlns="http://www.w3.org/2000/svg" xmlns:xlink="http://www.w3.org/1999/xlink" style="width:0; height:0; visibility:hidden; position:absolute;">
  <symbol id="360" viewBox="0 0 120 60">
    <path d="M60.43,56A25.56,25.56,0,1,1,86,30.41,25.59,25.59,0,0,1,60.43,56Zm0-50.12A24.56,24.56,0,1,0,85,30.41,24.59,24.59,0,0,0,60.43,5.85Z"></path>
    <path d="M60.43,60.89A30.49,30.49,0,1,1,82,8.84h0A30.49,30.49,0,0,1,60.43,60.89Zm0-60A29.5,29.5,0,0,0,39.57,51.27,29.5,29.5,0,0,0,81.29,9.55h0A29.31,29.31,0,0,0,60.43.91Z"></path>
    <path d="M75,49.7C70,49.7,61.67,44.91,53.8,37A55.76,55.76,0,0,1,43,22.54c-2.26-4.74-2.48-8.36-.65-10.2,3.73-3.72,14.57,1.3,24.71,11.43h0c10.13,10.13,15.15,21,11.43,24.7A4.74,4.74,0,0,1,75,49.7ZM45.83,12.1a3.74,3.74,0,0,0-2.76,1c-1.49,1.49-1.19,4.79.85,9.06A54.38,54.38,0,0,0,54.5,36.33C63.91,45.74,74.58,51,77.79,47.77s-2-13.88-11.43-23.29C58.83,17,50.51,12.1,45.83,12.1Z"></path>
    <path d="M41.3,52.84A3.32,3.32,0,0,1,38.86,52C35.17,48.28,43.92,35.1,54.52,24.5A88.21,88.21,0,0,1,71.25,11.05C75,8.87,79.87,6.71,82,8.84s0,7-2.21,10.75A88.26,88.26,0,0,1,66.34,36.31C57.43,45.23,46.69,52.84,41.3,52.84ZM79.55,9c-1.78,0-4.51,1-7.79,2.93a87.3,87.3,0,0,0-16.53,13.3,87,87,0,0,0-13.3,16.52c-2.75,4.7-3.63,8.27-2.36,9.54,2.51,2.51,13.59-3.19,26.06-15.66a87.3,87.3,0,0,0,13.3-16.53c2.75-4.7,3.63-8.26,2.36-9.53A2.38,2.38,0,0,0,79.55,9Z"></path>
    <rect x="59.93" y="-7.31" width="1" height="75.43" transform="translate(-3.8 51.64) rotate(-45)"></rect>
  </symbol>
  <symbol id="3d" viewBox="0 0 120 60">
    <polygon points="49.94 35.24 42.21 42.99 42.21 43.7 50.37 35.52 49.94 35.24"></polygon>
    <polygon points="42.21 46.56 19 60 20.99 60 42.75 47.4 42.21 47.03 42.21 46.56"></polygon>
    <path d="M101,60,77.79,46.56V30h0L60.5,18.35V0h-1V18.35L42.21,30v.2l.12-.12,1.19.8-1.31,1.31v.71l1.73-1.73-.18-.13,1.36.92-2.91,2.93v.7l3.34-3.34,1.18.8L42.21,37.6v.71l4.94-5,1.19.8L42.21,40.3V41l6.55-6.56-.15-.1,2.94,2-9.34,9.37v.7L52,36.6l1.19.8L43,47.58l.42.28L53.58,37.69l1.55,1-.37-.24L44.62,48.66l.42.28L55.18,38.77l1.33.89-.14-.09L46.23,49.74l.42.29L56.79,39.86l1.19.8L47.83,50.83l.42.28L58.4,40.94l1.18.8L49.44,51.91l.42.28L60,42v2l-9,9,.42.29L60,44.72v2l-7.35,7.37.42.28L60,47.42v2l-5.74,5.75.42.29L60,50.11v2l-4.13,4.15.42.28L60,52.81v2l-2.53,2.54.42.28L60,55.5v2l-.92.92.42.29.5-.5V59L77.25,47.4,99,60ZM60,19.22,76,30,60,40.82,44,30Z"></path>
  </symbol>
  <symbol id="audio" viewBox="0 0 120 60">
    <path d="M113.91,35.9,109,35.77c-3.83,0-6.29-1.68-9.15-3.62-3.23-2.2-6.89-4.69-13.21-4.81-.64-.27-1.28-.52-2-.76l-1-.29c-.18-.13-.36-.28-.55-.41-.81-.57-1.59-1.1-2.34-1.57l-.52-.59c-.83-.93-1.62-1.81-2.37-2.62-.94-1.54-1.84-3-2.71-4.31C71.91,9.68,69.08,4.5,65.76,4.5,60.3,4.5,57.36,15.92,55,25.1c-1.22,4.76-2.74,10.67-3.87,10.67a4.54,4.54,0,0,1-1.89-.62A3.31,3.31,0,0,0,47.77,34a3.24,3.24,0,0,0-.7-.16A6.52,6.52,0,0,0,45,32a6.19,6.19,0,0,0-.6-.23,13.58,13.58,0,0,0-2.2-1.72c-.17-.1-.34-.18-.51-.27-3.1-2.34-6.14-4.43-8.28-4.43s-4.31,2.29-6.45,4.71c-2.47,2.79-5,5.67-8.19,5.67-6.18,0-14.19.13-14.27.13H0v1H5.72c.53,0,1.09,0,1.66.08.41.06.85.14,1.29.25s.61.23.92.36.62.36.94.58a47.51,47.51,0,0,1,3.74,3.7c4.12,4.36,9.25,9.8,14.29,7.3a26.36,26.36,0,0,0,3.32-2.11c2.82-2,5.74-4.05,9-3,2.73.92,5.8-1.21,8.51-3.09l.79-.55a19.25,19.25,0,0,0,1.2,1.61,16.81,16.81,0,0,0,2.36,4.09,12,12,0,0,0,2.1,3.89c.95,3,2.55,5.44,5.61,5.44,3.6,0,6.48-5.32,9.8-11.48,1.29-2.38,2.63-4.85,4.07-7.12h8.76c3.65,5.7,7.86,9.82,13.08,9.82,2.12,0,4.77-2.2,7.59-4.53,1.25-1,2.56-2.11,3.87-3,.52-.31,1-.59,1.54-.85.82-.33,1.66-.63,2.41-.87s1.69-.37,2.29-.46,1.14-.08,1.36-.08H120v-1ZM85.36,29.59l-.89-1.05.4-.1c1.67,1.34,3.24,2.74,4.75,4.11,1.3,1.17,2.57,2.31,3.86,3.35H91C89.08,34,87.24,31.83,85.36,29.59ZM53.48,41.72c-.11-.42-.21-.82-.32-1.2h0a1.47,1.47,0,0,0,.77-.23c.2.84.37,1.91.51,2.85a3.36,3.36,0,0,1-.68-.3ZM30.28,36.9H35.4a20.15,20.15,0,0,0-6.2,3.56,35.28,35.28,0,0,1-3.27,2.23,5.51,5.51,0,0,1-4.84.32,35,35,0,0,1-5.93-3.32,39.24,39.24,0,0,0,4.9,1.87,6.61,6.61,0,0,0,5.3-.8A30.6,30.6,0,0,0,28.93,38Zm1.31-1a8.75,8.75,0,0,1,3.08-1.52,16.1,16.1,0,0,0,2.17-.7c.53-.2,1.08-.4,1.62-.55a10.16,10.16,0,0,1,5.29-.47l.34.25c.34.34.68.69,1,1.05a21.59,21.59,0,0,0-3.39,1.16l-1.1.43-1,.35ZM51.1,38.7l0,0c-.26-.62-.52-1.21-.78-1.74h.07c.42.08.78.69,1.12,1.56Zm-5.2-3.86.65.73.29.33h-4.4A14.89,14.89,0,0,1,45.9,34.84ZM52.72,39a1.94,1.94,0,0,1,.58-.12c.12,0,.23.15.34.4a.74.74,0,0,1-.46.21,1.67,1.67,0,0,1-.31-.05Zm2.92,5.18c1.63-.4,3-3.32,4.42-7.31H63.3c-.07.15-.13.31-.19.46-2,4.74-4,9.65-5.79,9.65a3.14,3.14,0,0,1-1.26-.28C55.9,45.88,55.76,45,55.64,44.21Zm4.78-8.31.78-2.21c2.15-6.14,4.82-13.78,8.41-15.55,2-1,3.87,0,6.08,2.13L76,21c.2.43.4.87.59,1.31a6.15,6.15,0,0,0-5.72,1.31C68,26,65.71,31.06,63.71,35.9ZM78.65,24.22l.49.79.54.87-.3,0c-.28-.58-.55-1.16-.81-1.75Zm3.12,2.7c.33.38.66.75,1,1.13-.14.06-.28.11-.42.18l-.84-1.34Zm1.75.49.33.25-.1,0ZM94.77,36.9a17.12,17.12,0,0,0,6.51,3.25,7.77,7.77,0,0,0,3.2,0,7.43,7.43,0,0,1-4.43,1.18c-2.9-.39-5.53-2.1-8.06-4.45Zm13,.13a9.67,9.67,0,0,1-4.78,0l-.29-.11h5.4A2.85,2.85,0,0,0,107.72,37Zm-5.08.93a9.71,9.71,0,0,0,4.16.23l-.22.12a7,7,0,0,1-5.09.87,14.71,14.71,0,0,1-5-2.28h3.63A15.83,15.83,0,0,0,102.64,38ZM95.09,35.9c-1.56-1.19-3.13-2.59-4.8-4.09-1.28-1.16-2.59-2.33-4-3.48h.07a43.88,43.88,0,0,1,8.51,5.16c1.17.85,2.32,1.68,3.48,2.41ZM74.72,18.15c-1.85-1.37-3.61-1.86-5.55-.91-4,2-6.59,9.48-8.92,16.12-.29.85-.59,1.71-.89,2.54H56.5c.61-1.69,1.26-3.82,2-6.35,2.23-7.47,5-16.76,9.17-17.72,2.14-.48,4.25,1.85,6.63,5.45C74.46,17.57,74.59,17.85,74.72,18.15ZM59,36.9c-1.21,3.26-2.41,6-3.5,6.32a27.16,27.16,0,0,0-.72-3.71,11.51,11.51,0,0,0,1.35-2.61Zm-4.71,1.58a1.18,1.18,0,0,0-1-.57,2.8,2.8,0,0,0-.91.17,6.81,6.81,0,0,0-.6-1.18H55A11.2,11.2,0,0,1,54.28,38.48Zm-12.08-7a15.62,15.62,0,0,0-4,.69c-.58.17-1.15.38-1.7.58a14.46,14.46,0,0,1-2,.66,11.82,11.82,0,0,0-4.53,2.5h-3.1c.47-.42.94-.86,1.39-1.29a20.53,20.53,0,0,1,4.4-3.52l.33-.17a11.11,11.11,0,0,1,3-1.16,8.62,8.62,0,0,1,5.19.9ZM28.71,36.9l-.42.36a30.85,30.85,0,0,1-3.46,2.64,5.54,5.54,0,0,1-4.5.69,40.33,40.33,0,0,1-5.21-2l-1.18-.51L15,38.3c1.59.35,3.09.68,4.38.87A6.94,6.94,0,0,0,24.29,38a16.35,16.35,0,0,0,1.39-1.05Zm-5,.21a5.84,5.84,0,0,1-4.19,1.07c-1.26-.19-2.74-.51-4.31-.85l-2-.43H24C23.93,37,23.84,37.05,23.74,37.11ZM16.5,41.73a25.76,25.76,0,0,0,4.24,2.21,6.43,6.43,0,0,0,5.68-.38,34.83,34.83,0,0,0,3.38-2.3c2.23-1.65,4.55-3.37,7-3.62a14.46,14.46,0,0,0,3-.74h7.09q-.77.39-1.56.84c-.76.41-1.54.84-2.31,1.2a7.33,7.33,0,0,1-4.07,1c-3.28-.61-6.21,1.55-8.78,3.45A25.94,25.94,0,0,1,27,45.48a5.5,5.5,0,0,1-5.17-.06A26.5,26.5,0,0,1,16.5,41.73Zm35.18-1.57.39.15c.13.47.26,1,.39,1.46l-.21-.23Q52,40.85,51.68,40.16Zm2.45,3.93a4.37,4.37,0,0,0,.49.12c.09.56.18,1.13.28,1.71a3.44,3.44,0,0,1-.27-.27C54.45,45.14,54.29,44.61,54.13,44.09Zm2.17,3.78a3.75,3.75,0,0,0,1,.14c2.49,0,4.35-4.53,6.71-10.27l.35-.84h3.94c-.7,1.37-1.38,2.77-2,4.17-2.4,5-4.66,9.68-6.89,9.68a3.56,3.56,0,0,1-2.65-1.21C56.57,49,56.43,48.44,56.3,47.87Zm8.49-12c1.92-4.61,4.09-9.37,6.73-11.47a5.19,5.19,0,0,1,5.66-.88c.39.85.78,1.71,1.19,2.57a11.5,11.5,0,0,0-5.72,3.93,31.76,31.76,0,0,0-3.8,5.85Zm8.61-5.19A10.4,10.4,0,0,1,78.8,27c.42.89.84,1.77,1.28,2.63a26.13,26.13,0,0,0-5.29,6.23H70A29.54,29.54,0,0,1,73.4,30.71Zm6.43-3.84.46,0c.38.62.77,1.24,1.16,1.86l-.55.36C80.54,28.34,80.18,27.61,79.83,26.87ZM82,29.56c1.4,2.22,2.83,4.38,4.32,6.34H84.68C83.52,34.05,82.41,32,81.36,30Zm.88-.47c.19-.09.37-.16.56-.23l1.16,1.37c1.66,2,3.3,3.93,5,5.67h-2C86,33.83,84.4,31.49,82.87,29.09Zm7.67,7.81c2.9,2.85,5.92,5,9.37,5.44a6.5,6.5,0,0,0,2.67-.27,7.21,7.21,0,0,1-4,1.46c-3.82-.24-7.15-2.91-10.23-6.63ZM99.27,33a25.94,25.94,0,0,0,5.11,2.92h-4a41.83,41.83,0,0,1-4.88-3.22,54.66,54.66,0,0,0-6.38-4.16C93.62,29.13,96.49,31.08,99.27,33ZM56,25.35C58.12,17,61.08,5.5,65.76,5.5c2.08,0,4.22,3.08,6.44,7.39-1.54-1.59-3.08-2.41-4.74-2C62.74,12,60,21.15,57.56,29.27c-.68,2.28-1.41,4.71-2.13,6.63h-3C53.59,34.37,54.55,30.82,56,25.35ZM27.68,30.77c2-2.25,3.88-4.38,5.71-4.38,1.29,0,3.15,1,5.15,2.4a8.81,8.81,0,0,0-2.76,0A11.5,11.5,0,0,0,32.5,30l-.32.16a21.06,21.06,0,0,0-4.64,3.69c-.73.69-1.47,1.38-2.23,2H22C24.14,34.76,26,32.68,27.68,30.77ZM48.82,40.2c-2.51,1.74-5.36,3.72-7.61,3-3.75-1.27-7,1-9.9,3.07a26.3,26.3,0,0,1-3.2,2c-3.44,1.71-7-1-10.43-4.32a21.44,21.44,0,0,0,3.75,2.37,6.55,6.55,0,0,0,6.06,0,27.14,27.14,0,0,0,3.3-2.21c2.53-1.87,5.15-3.8,8-3.28a8.11,8.11,0,0,0,4.67-1c.8-.37,1.6-.81,2.37-1.24s1.63-.89,2.37-1.21l.2.21.25.41c.32.54.65,1.08,1,1.61Zm21.56,3.34c-3,5.64-5.91,11-8.92,11-2,0-3.22-1.33-4.07-3.22a4.34,4.34,0,0,0,2,.47c2.86,0,5.14-4.75,7.79-10.25.74-1.54,1.49-3.11,2.27-4.6h4.7C72.82,39.05,71.58,41.34,70.38,43.54ZM76,35.9a24.16,24.16,0,0,1,4.56-5.31c.94,1.85,1.91,3.64,2.93,5.31Zm9.35,1h1.76c3.38,4.24,7.08,7.35,11.46,7.63h.24a5.42,5.42,0,0,0,1.82-.36,6.93,6.93,0,0,1-3.44,1.54C92.6,45.72,88.72,42,85.33,36.9Z"></path>
  </symbol>
  <symbol id="bluetooth" viewBox="0 0 120 60">
    <path d="M79.91,21.11l-.84-.35V11.67l-4.91,4.88-.7-.69,5.25-5.22-4.82-4.8.7-.69L79.07,9.6V.35L79.91,0,85,5.07v.69l-4.89,4.88,4.81,4.79v.7ZM80.06,12v7.59l3.81-3.79Zm0-10.44V9.29L84,5.41Z"></path>
    <path d="M84.64,32.8A22.28,22.28,0,0,1,62.31,10.55h1A21.3,21.3,0,0,0,84.64,31.82h0v1Z"></path>
    <path d="M84.63,38.24A27.72,27.72,0,0,1,56.85,10.56h1a26.75,26.75,0,0,0,26.79,26.7h0v1Z"></path>
    <path d="M84.63,43.68A33.19,33.19,0,0,1,51.38,10.56h1A32.2,32.2,0,0,0,84.63,42.7h0v1Z"></path>
    <path d="M84.64,49.12A38.63,38.63,0,0,1,45.92,10.56h1A37.66,37.66,0,0,0,84.64,48.14h0v1Z"></path>
    <path d="M84.63,54.56a44.08,44.08,0,0,1-44.17-44h1a43.1,43.1,0,0,0,43.18,43h0v1Z"></path>
    <path d="M84.62,60A49.44,49.44,0,0,1,49.53,45.53,49.05,49.05,0,0,1,35,10.56h1A48.52,48.52,0,0,0,84.62,59h0v1Z"></path>
  </symbol>
  <symbol id="clock" viewBox="0 0 120 60">
    <path d="M60,0A30,30,0,1,0,90,30,30,30,0,0,0,60,0Zm0,59A29,29,0,1,1,89,30,29.06,29.06,0,0,1,60,59Z"></path>
    <path d="M62,29.59a2,2,0,1,0-.06,1H85v-1Z"></path>
    <path d="M58.31,26.39,60,24.67V24L39.58,44.41l.29.42L56.39,28.31Z"></path>
    <path d="M53.55,5.84,35.84,23.55c-.08.31-.15.62-.22.93L54.48,5.62Z"></path>
    <path d="M60,5h-.16L35,29.86V30c0,.19,0,.37,0,.55l25-25Z"></path>
    <path d="M60,10.3,35.47,34.85c0,.2.09.39.13.58L60,11Z"></path>
    <path d="M60,15.77,36.71,39.08c.06.17.13.34.2.51L60,16.48Z"></path>
    <path d="M60,18.5,37.54,41l.24.47L60,19.21Z"></path>
    <path d="M60,21.23,38.5,42.76l.27.44L60,21.94Z"></path>
    <path d="M56.07,30.66,40.76,46l.33.38L56.21,31.22A3.53,3.53,0,0,1,56.07,30.66Z"></path>
    <path d="M56.93,32.53,42.06,47.4l.35.36L57.26,32.9A2.91,2.91,0,0,1,56.93,32.53Z"></path>
    <path d="M49.23,7.44,37.43,19.23c-.19.41-.38.84-.56,1.26L50.49,6.88C50.06,7.05,49.64,7.24,49.23,7.44Z"></path>
    <path d="M56.93,5.19,35.19,26.93c0,.27-.06.53-.08.8L57.73,5.11Z"></path>
    <path d="M60,7.57l-24.9,24.9c0,.21.05.42.08.63L60,8.28Z"></path>
    <path d="M60,13l-24,24c.06.18.11.36.17.54L60,13.74Z"></path>
    <path d="M58.49,33.7l-15,15,.38.33L59,33.87A4.26,4.26,0,0,1,58.49,33.7Z"></path>
    <path d="M62.62,33a4.18,4.18,0,0,1-1.52.83L45,50l.4.29L62.63,33Z"></path>
    <path d="M64.65,33,46.57,51.08l.43.28L65.36,33Z"></path>
    <path d="M67.39,33,48.29,52.09l.47.24L68.09,33Z"></path>
    <path d="M70.12,33l-20,20,.5.2L70.83,33Z"></path>
    <path d="M72.85,33,52.13,53.73l.53.17L73.56,33Z"></path>
    <path d="M75.59,33,54.26,54.33l.57.13L76.29,33Z"></path>
    <path d="M78.32,33,56.56,54.76l.63.08L79,33Z"></path>
    <path d="M81.05,33l-22,22h.69l22-22Z"></path>
    <path d="M61.87,54.91c.26,0,.52,0,.77-.06L84.49,33h-.71Z"></path>
    <path d="M66,54.26,84.25,36c.08-.31.16-.61.22-.93L65,54.48Z"></path>
    <path d="M70.12,52.84,82.84,40.11c.18-.39.34-.79.49-1.19L68.88,53.37C69.3,53.21,69.71,53,70.12,52.84Z"></path>
    <path d="M80,45l-5,5A25.14,25.14,0,0,0,80,45Z"></path>
  </symbol>
  <symbol id="graph" viewBox="0 0 120 60">
    <path d="M30.51,60a.51.51,0,0,1-.51-.51V.51a.51.51,0,1,1,1,0V59H36.1V31a.51.51,0,0,1,.51-.51h3.56V20.85a.51.51,0,0,1,.51-.51h4.07a.5.5,0,0,1,.5.51v5.59h3.56a.51.51,0,0,1,.51.51V59h5.09V24.92a.51.51,0,0,1,.51-.51h3.55v-5.6a.5.5,0,0,1,.51-.5h4.07a.5.5,0,0,1,.51.5v11.7h3.56a.51.51,0,0,1,.51.51V59h5.08V14.75a.51.51,0,0,1,.51-.51h4.07a.51.51,0,0,1,.51.51v9.66h3V20.85a.51.51,0,0,1,.51-.51h4.06a.51.51,0,0,1,.51.51V59h3.56a.51.51,0,0,1,0,1Zm51.35-1h3.06V21.36H81.86ZM77.8,59h3V25.42h-3Zm-4.07,0h3V15.25h-3ZM63.56,59h3V31.53h-3Zm-4.07,0h3V19.32h-3Zm-4.07,0h3V25.42h-3ZM45.25,59h3.06V27.46H45.25Zm-4.06,0h3.05V21.36H41.19Zm-4.07,0h3.05V31.53H37.12Z"></path>
    <rect x="73.73" width="1.02" height="1.02"></rect>
    <rect x="73.73" y="4.07" width="1.02" height="1.02"></rect>
    <rect x="73.73" y="8.14" width="1.02" height="1.02"></rect>
    <path d="M78.31,1a.51.51,0,1,1,0-1H88.47a.51.51,0,0,1,0,1Z"></path>
    <path d="M78.31,5.08a.5.5,0,0,1-.51-.5.51.51,0,0,1,.51-.51H88.47a.51.51,0,0,1,.51.51.5.5,0,0,1-.51.5Z"></path>
    <path d="M78.31,9.15a.51.51,0,0,1-.51-.51.5.5,0,0,1,.51-.5H88.47a.5.5,0,0,1,.51.5.51.51,0,0,1-.51.51Z"></path>
  </symbol>
  <symbol id="hourglass" viewBox="0 0 120 60">
    <path d="M42,0V15L59.5,29.58v.84L42,45V60H78V45L60.5,30.42v-.84L78,15V0ZM77,59H43V56H77ZM77,45.5V55H43V45.5L59.5,31.72v3.91L46,46.9V52H74V46.9L60.5,35.63V31.72Zm0-31L60.5,28.28V24.37L74,13.1H46L59.5,24.37v3.91L43,14.5V5H77ZM43,4V1H77V4Z"></path>
    <polygon points="74 13.1 60 24.79 46 13.1 74 13.1"></polygon>
    <polygon points="46 52 46 46.9 60 35.21 74 46.9 74 52 46 52"></polygon>
  </symbol>
  <symbol id="people" viewBox="0 0 120 60">
    <path d="M96.44,10.74V55.17H23.56v-6H22.5V60h75V10.74ZM23.56,59V56.21H96.44V59Z"></path>
    <path d="M39.26,40.79a4,4,0,0,0-4-4h-.08a4,4,0,0,0-4,4V50h8.12Z"></path>
    <path d="M35.12,34h.16a4,4,0,0,0,4-4h0a4,4,0,0,0-4-4h-.16a4,4,0,0,0-4,4h0A4,4,0,0,0,35.12,34Z"></path>
    <path d="M51.66,34.54a4,4,0,0,0-4-4h-.08a4,4,0,0,0-4,4V50h8.12Z"></path>
    <path d="M47.52,27.73h.16a4,4,0,1,0,0-7.94h-.16a4,4,0,1,0,0,7.94Z"></path>
    <path d="M64.06,27.72a4,4,0,0,0-4-4H60a4,4,0,0,0-4,4V50h8.12Z"></path>
    <path d="M59.92,20.91h.16a4,4,0,1,0,0-7.93h-.16a4,4,0,1,0,0,7.93Z"></path>
    <path d="M76.46,20.9a4,4,0,0,0-4-4h-.08a4,4,0,0,0-4,4V50h8.12Z"></path>
    <path d="M72.32,14.1h.16a4,4,0,0,0,4-4h0a4,4,0,0,0-4-4h-.16a4,4,0,0,0-4,4h0A4,4,0,0,0,72.32,14.1Z"></path>
    <path d="M88.86,14.74a4,4,0,0,0-4-4h-.08a4,4,0,0,0-4,4V50h8.12Z"></path>
    <path d="M84.72,7.94h.16a4,4,0,1,0,0-7.94h-.16a4,4,0,1,0,0,7.94Z"></path>
  </symbol>
  <symbol id="selfie" viewBox="0 0 120 60">
    <path d="M71.24,0H48.76c-3,0-5.48,2.17-5.48,4.84V55.16c0,2.67,2.46,4.84,5.48,4.84H71.24c3,0,5.48-2.17,5.48-4.84V4.84C76.72,2.17,74.26,0,71.24,0Zm4.5,55.16c0,2.13-2,3.86-4.5,3.86H48.76c-2.48,0-4.5-1.73-4.5-3.86V4.84c0-2.13,2-3.86,4.5-3.86H71.24c2.48,0,4.5,1.73,4.5,3.86Z"></path>
    <polygon points="58.57 23.61 53.61 23.61 53.61 28.84 54.59 28.84 54.59 24.59 58.57 24.59 58.57 23.61"></polygon>
    <polygon points="53.61 31.16 53.61 36.39 58.57 36.39 58.57 35.41 54.59 35.41 54.59 31.16 53.61 31.16"></polygon>
    <polygon points="66.39 28.84 66.39 23.61 61.43 23.61 61.43 24.59 65.41 24.59 65.41 28.84 66.39 28.84"></polygon>
    <polygon points="61.43 36.39 66.39 36.39 66.39 31.16 65.41 31.16 65.41 35.41 61.43 35.41 61.43 36.39"></polygon>
    <polygon points="54.08 8.36 47.21 15.22 47.21 15.92 54.77 8.36 54.08 8.36"></polygon>
    <polygon points="59.38 8.36 47.21 20.52 47.21 21.22 60.08 8.36 59.38 8.36"></polygon>
    <polygon points="52.59 21.15 65.38 8.36 64.68 8.36 51.89 21.15 52.59 21.15"></polygon>
    <polygon points="51.15 21.89 47.21 25.82 47.21 26.52 51.15 22.59 51.15 21.89"></polygon>
    <polygon points="51.15 27.19 47.21 31.13 47.21 31.82 51.15 27.89 51.15 27.19"></polygon>
    <polygon points="57.89 21.15 70.68 8.36 69.99 8.36 57.2 21.15 57.89 21.15"></polygon>
    <polygon points="63.19 21.15 72.79 11.56 72.79 10.86 62.5 21.15 63.19 21.15"></polygon>
    <polygon points="51.15 32.49 47.21 36.43 47.21 37.12 51.15 33.19 51.15 32.49"></polygon>
    <polygon points="51.15 35.14 47.21 39.08 47.21 39.77 51.15 35.84 51.15 35.14"></polygon>
    <polygon points="65.84 21.15 72.79 14.21 72.79 13.51 65.15 21.15 65.84 21.15"></polygon>
    <polygon points="51.15 37.8 47.21 41.73 47.21 42.42 51.15 38.49 51.15 37.8"></polygon>
    <polygon points="68.5 21.15 72.79 16.86 72.79 16.16 67.8 21.15 68.5 21.15"></polygon>
    <polygon points="68.85 23.44 72.79 19.51 72.79 18.81 68.85 22.75 68.85 23.44"></polygon>
    <polygon points="52.74 38.85 47.21 44.38 47.21 45.07 53.44 38.85 52.74 38.85"></polygon>
    <polygon points="68.85 26.09 72.79 22.16 72.79 21.46 68.85 25.4 68.85 26.09"></polygon>
    <polygon points="55.39 38.85 47.21 47.03 47.21 47.72 56.09 38.85 55.39 38.85"></polygon>
    <polygon points="68.85 28.74 72.79 24.81 72.79 24.12 68.85 28.05 68.85 28.74"></polygon>
    <polygon points="58.05 38.85 47.21 49.68 47.21 50.38 58.74 38.85 58.05 38.85"></polygon>
    <polygon points="48.77 8.36 47.21 9.92 47.21 10.62 49.47 8.36 48.77 8.36"></polygon>
    <polygon points="51.42 8.36 47.21 12.57 47.21 13.27 52.12 8.36 51.42 8.36"></polygon>
    <polygon points="56.73 8.36 47.21 17.87 47.21 18.57 57.42 8.36 56.73 8.36"></polygon>
    <polygon points="62.03 8.36 47.21 23.17 47.21 23.87 62.73 8.36 62.03 8.36"></polygon>
    <polygon points="51.15 24.54 47.21 28.48 47.21 29.17 51.15 25.24 51.15 24.54"></polygon>
    <polygon points="55.24 21.15 68.03 8.36 67.33 8.36 54.54 21.15 55.24 21.15"></polygon>
    <polygon points="59.85 21.15 60.54 21.15 72.79 8.91 72.79 8.36 72.64 8.36 59.85 21.15"></polygon>
    <polygon points="51.15 29.84 47.21 33.78 47.21 34.47 51.15 30.54 51.15 29.84"></polygon>
    <polygon points="60.7 38.85 47.91 51.64 48.6 51.64 61.39 38.85 60.7 38.85"></polygon>
    <polygon points="68.85 31.39 72.79 27.46 72.79 26.77 68.85 30.7 68.85 31.39"></polygon>
    <polygon points="68.85 34.05 72.79 30.11 72.79 29.42 68.85 33.35 68.85 34.05"></polygon>
    <polygon points="63.35 38.85 50.56 51.64 51.25 51.64 64.04 38.85 63.35 38.85"></polygon>
    <polygon points="68.85 36.7 72.79 32.76 72.79 32.07 68.85 36 68.85 36.7"></polygon>
    <polygon points="66 38.85 53.21 51.64 53.9 51.64 66.69 38.85 66 38.85"></polygon>
    <polygon points="68.85 38.85 68.65 38.85 55.86 51.64 56.55 51.64 72.79 35.41 72.79 34.72 68.85 38.65 68.85 38.85"></polygon>
    <polygon points="59.21 51.64 72.79 38.06 72.79 37.37 58.51 51.64 59.21 51.64"></polygon>
    <polygon points="61.86 51.64 72.79 40.72 72.79 40.02 61.16 51.64 61.86 51.64"></polygon>
    <polygon points="64.51 51.64 72.79 43.37 72.79 42.67 63.81 51.64 64.51 51.64"></polygon>
    <polygon points="67.16 51.64 72.79 46.02 72.79 45.32 66.47 51.64 67.16 51.64"></polygon>
    <polygon points="69.81 51.64 72.79 48.67 72.79 47.97 69.12 51.64 69.81 51.64"></polygon>
    <polygon points="72.47 51.64 72.79 51.32 72.79 50.62 71.77 51.64 72.47 51.64"></polygon>
  </symbol>
  <symbol id="wayfinding" viewBox="0 0 120 60">
    <path d="M84.41,60a5.59,5.59,0,0,1-4.84-2.8L79.42,57H57.75l-3.52,2.94a.52.52,0,0,1-.33.12.59.59,0,0,1-.22,0,.51.51,0,0,1-.29-.46V57H44.75a14.75,14.75,0,0,1,0-29.49H55l.15-.26a5.58,5.58,0,0,1,9.66,0l.15.26H75.25a9.66,9.66,0,0,0,0-19.32H63.85l-3.53,2.94a.47.47,0,0,1-.32.12.54.54,0,0,1-.21,0,.53.53,0,0,1-.3-.46V8.14H40.58l-.15.25a5.59,5.59,0,0,1-4.84,2.8A5.81,5.81,0,0,1,34.15,11a5.59,5.59,0,1,1,6.28-8.2l.15.25H59.49V.51a.51.51,0,0,1,.29-.46A.54.54,0,0,1,60,0a.47.47,0,0,1,.32.12l3.53,2.94h11.4a14.75,14.75,0,0,1,0,29.49H65l-.15.26a5.58,5.58,0,0,1-9.66,0L55,32.54H44.75a9.66,9.66,0,0,0,0,19.32h8.64V49.32a.52.52,0,0,1,.29-.46.54.54,0,0,1,.22,0,.52.52,0,0,1,.33.12l3.52,2.94H79.42l.15-.25a5.59,5.59,0,0,1,4.84-2.8,6,6,0,0,1,1.45.19,5.6,5.6,0,0,1,0,10.81A5.5,5.5,0,0,1,84.41,60Zm0-10.17A4.58,4.58,0,1,0,89,54.41,4.59,4.59,0,0,0,84.4,49.83Zm-30,8.58,4.8-4-4.8-4ZM60.32,54a.51.51,0,0,1,0,.79L59,55.93H78.81v-3H59ZM44.75,28.48a13.73,13.73,0,1,0,0,27.45h8.64v-3H44.75a10.68,10.68,0,0,1,0-21.35H54.6l-.11-.6a5.28,5.28,0,0,1,0-1.86l.11-.59ZM60,25.42A4.58,4.58,0,1,0,64.58,30,4.58,4.58,0,0,0,60,25.42Zm5.51,3.65a5.28,5.28,0,0,1,0,1.86l-.11.6h9.85a13.73,13.73,0,1,0,0-27.46H65.06L66.42,5.2a.51.51,0,0,1,.19.39.54.54,0,0,1-.18.4L65.06,7.12H75.25a10.68,10.68,0,1,1,0,21.36H65.4ZM35.6,1a4.58,4.58,0,1,0,4.58,4.57A4.58,4.58,0,0,0,35.6,1ZM60.51,9.59l4.8-4-4.8-4ZM41.19,7.12h18.3v-3H41.19Z"></path>
  </symbol>
</svg>
