<?xml version="1.0" standalone="no"?>
<!DOCTYPE svg PUBLIC "-//W3C//DTD SVG 20010904//EN"
 "http://www.w3.org/TR/2001/REC-SVG-20010904/DTD/svg10.dtd">
<svg version="1.0" xmlns="http://www.w3.org/2000/svg"
 width="700.000000pt" height="700.000000pt" viewBox="0 0 700.000000 700.000000"
 preserveAspectRatio="xMidYMid meet">
	 <style>
    g { fill: #000000; }
    @media (prefers-color-scheme: dark) {
      g { fill: #ffffff; }
    }
  </style>
<g transform="translate(0.000000,700.000000) scale(0.100000,-0.100000)"
stroke="none">
<path d="M3497 6834 c-1 -1 -72 -4 -157 -8 -85 -3 -168 -8 -185 -10 -16 -3
-57 -8 -90 -11 -199 -22 -494 -95 -720 -178 -364 -134 -706 -334 -1011 -592
-61 -51 -296 -284 -349 -345 -86 -99 -214 -268 -255 -335 -13 -22 -27 -42 -30
-45 -15 -12 -125 -208 -184 -326 -132 -265 -245 -599 -292 -864 -17 -93 -24
-141 -29 -185 -3 -27 -8 -60 -10 -73 -16 -96 -23 -468 -10 -612 8 -93 24 -226
35 -290 5 -30 12 -71 15 -90 3 -19 10 -48 15 -65 5 -16 11 -43 14 -60 37 -229
222 -686 391 -965 225 -372 556 -733 895 -975 30 -22 60 -43 65 -48 24 -19
171 -110 257 -160 89 -51 164 -89 273 -137 89 -40 109 -48 175 -73 59 -23 99
-37 240 -82 79 -25 364 -90 440 -100 52 -6 217 -26 265 -31 60 -6 439 -6 475
0 14 2 62 7 108 11 87 7 89 7 192 26 36 6 79 13 95 16 17 2 84 17 150 33 430
103 789 267 1179 540 163 114 410 340 562 515 328 377 577 847 703 1325 17 63
32 126 35 140 2 14 12 61 20 105 9 44 18 98 21 120 3 22 7 49 9 60 4 20 16
135 22 205 4 51 4 408 0 455 -2 22 -7 76 -11 120 -3 44 -8 87 -10 95 -2 8 -7
35 -10 60 -9 70 -45 247 -66 330 -199 764 -652 1422 -1298 1886 -77 56 -228
154 -237 154 -3 0 -19 9 -35 21 -29 21 -322 169 -334 169 -4 0 -30 11 -58 24
-127 57 -505 170 -637 190 -19 3 -58 10 -87 15 -28 6 -78 13 -110 16 -32 3
-65 8 -73 10 -23 6 -357 23 -363 19z m1444 -1783 l477 -1 -227 -408 c-125
-224 -230 -415 -234 -423 -4 -8 -18 -32 -30 -54 -41 -71 -225 -403 -421 -757
-44 -81 -84 -148 -87 -148 -4 0 -83 140 -229 405 -9 17 -29 53 -45 80 -15 28
-38 68 -50 90 -61 109 -483 870 -518 935 -23 41 -66 120 -98 175 l-56 100 236
5 c130 3 364 4 521 3 157 -1 499 -2 761 -2z m-1681 -120 c0 -4 39 -77 86 -162
48 -85 100 -179 117 -209 16 -30 109 -197 205 -370 97 -173 186 -333 197 -355
12 -22 32 -58 45 -80 13 -22 33 -58 45 -80 140 -253 313 -565 347 -625 43 -77
373 -671 413 -745 21 -38 51 -92 67 -118 15 -26 28 -50 28 -52 0 -2 23 -43 50
-91 28 -47 49 -88 47 -90 -2 -2 -750 -3 -1663 -2 l-1659 3 133 240 c73 132
149 269 169 305 20 36 90 162 156 280 66 118 132 238 147 265 50 91 170 310
180 325 5 8 29 51 53 95 25 44 55 98 67 120 13 22 47 85 77 140 30 55 58 105
63 110 4 6 22 37 39 70 150 279 576 1035 583 1035 4 0 8 -4 8 -9z"/>
</g>
</svg>
