<svg xmlns="http://www.w3.org/2000/svg" >
		<style>
    g {
      display: none;
    }
    g:target {
      display: inline;
    }
  </style>
	<g id="person" viewBox="0 0 20 8" >
		<path d="M6,2 C6,0.895 5.105,0 4,0 C2.895,0 2,0.895 2,2 C2,3.105 2.895,4 4,4 C5.105,4 6,3.105 6,2 Z M0,7 L0,8 L8,8 L8,7 C8,5.67 5.335,5 4,5 C2.665,5 0,5.67 0,7 Z"/>
	</g>
	
	<g id="person-outline" viewBox="0 0 12 12">
		<polygon fill="#FFF" fill-opacity=".008" fill-rule="evenodd" points="0 0 12 0 12 12 0 12"/>
	</g>
	
	<g id="lock-outline" viewBox="0 0 8 11">
	  <path fill-rule="evenodd" d="M717,443.666667 L716.5,443.666667 L716.5,442.619048 C716.5,441.173333 715.38,440 714,440 C712.62,440 711.5,441.173333 711.5,442.619048 L711.5,443.666667 L711,443.666667 C710.45,443.666667 710,444.138095 710,444.714286 L710,449.952381 C710,450.528571 710.45,451 711,451 L717,451 C717.55,451 718,450.528571 718,449.952381 L718,444.714286 C718,444.138095 717.55,443.666667 717,443.666667 L717,443.666667 Z M714,440.995238 C714.855,440.995238 715.55,441.723333 715.55,442.619048 L715.55,443.666667 L712.5,443.666667 L712.5,442.619048 L712.45,442.619048 C712.45,441.723333 713.145,440.995238 714,440.995238 L714,440.995238 Z M717,449.952381 L711,449.952381 L711,444.714286 L717,444.714286 L717,449.952381 L717,449.952381 Z M714,448.380952 C714.55,448.380952 715,447.909524 715,447.333333 C715,446.757143 714.55,446.285714 714,446.285714 C713.45,446.285714 713,446.757143 713,447.333333 C713,447.909524 713.45,448.380952 714,448.380952 L714,448.380952 Z" transform="translate(-710 -440)"/>
	</g>
	
	<g id="tick" viewBox="0 0 12 12">
	  <polygon fill="#FFF" fill-opacity=".008" fill-rule="evenodd" points="1228 288 1240 288 1240 300 1228 300" transform="translate(-1228 -288)"/>
	</g>
	
	<g id="lock" viewBox="0 0 8 11">
	  <path fill-rule="evenodd" d="M457,443.666667 L456.5,443.666667 L456.5,442.619048 C456.5,441.173333 455.38,440 454,440 C452.62,440 451.5,441.173333 451.5,442.619048 L451.5,443.666667 L451,443.666667 C450.45,443.666667 450,444.138095 450,444.714286 L450,449.952381 C450,450.528571 450.45,451 451,451 L457,451 C457.55,451 458,450.528571 458,449.952381 L458,444.714286 C458,444.138095 457.55,443.666667 457,443.666667 L457,443.666667 Z M454,448.380952 C453.45,448.380952 453,447.909524 453,447.333333 C453,446.757143 453.45,446.285714 454,446.285714 C454.55,446.285714 455,446.757143 455,447.333333 C455,447.909524 454.55,448.380952 454,448.380952 L454,448.380952 Z M455.55,443.666667 L452.45,443.666667 L452.45,442.619048 C452.45,441.723333 453.145,440.995238 454,440.995238 C454.855,440.995238 455.55,441.723333 455.55,442.619048 L455.55,443.666667 L455.55,443.666667 Z" transform="translate(-450 -440)"/>
	</g>

</svg>
